<?xml version="1.0" encoding="utf-8"?>
<!-- Generator: Adobe Illustrator 15.1.0, SVG Export Plug-In . SVG Version: 6.00 Build 0)  -->
<!DOCTYPE svg PUBLIC "-//W3C//DTD SVG 1.1//EN" "http://www.w3.org/Graphics/SVG/1.1/DTD/svg11.dtd">
<svg version="1.1" id="Layer_1" xmlns="http://www.w3.org/2000/svg" xmlns:xlink="http://www.w3.org/1999/xlink" x="0px" y="0px"
	 width="55px" height="55px" viewBox="0 0 55 55" enable-background="new 0 0 55 55" xml:space="preserve">
<g>
	<path fill="#FFFFFF" stroke="#000000" stroke-width="4" stroke-miterlimit="10" d="M53,34.912
		C42,34.852,26.964,14.798,26.964,3.805c0-1.979,0,0,0.536-1.805H2v36.274C5.34,44.097,9.98,49,15.535,53H53V34.912z"/>
</g>
<circle fill="#FFFFFF" stroke="#000000" stroke-width="3.5" stroke-miterlimit="10" cx="11.648" cy="32.1" r="4.309"/>
<circle fill="#FFFFFF" stroke="#000000" stroke-width="3.5" stroke-miterlimit="10" cx="24.351" cy="23.299" r="4.309"/>
<path fill="#FFFFFF" stroke="#000000" stroke-width="3.5" stroke-miterlimit="10" d="M25.228,43.892
	c-0.076,2.379-2.068,4.247-4.446,4.17c-2.379-0.076-4.244-2.068-4.168-4.447c0.077-2.376,2.066-4.243,4.445-4.166
	C23.438,39.524,25.303,41.516,25.228,43.892z"/>
<circle fill="#FFFFFF" stroke="#000000" stroke-width="3.5" stroke-miterlimit="10" cx="32.448" cy="35.025" r="4.309"/>
</svg>
